<svg xmlns="http://www.w3.org/2000/svg"  viewBox="0 0 50 50" width="50px" height="50px"><path d="M 11 16 C 6.037 16 2 20.037 2 25 C 2 29.963 6.037 34 11 34 C 15.963 34 20 29.963 20 25 C 20 20.037 15.963 16 11 16 z M 24 16 C 22.343 16 21 17.343 21 19 L 21 31 C 21 32.657 22.343 34 24 34 C 25.657 34 27 32.657 27 31 L 27 19 C 27 17.343 25.657 16 24 16 z M 31 16 C 29.343 16 28 17.343 28 19 L 28 31 C 28 32.657 29.343 34 31 34 C 32.657 34 34 32.657 34 31 L 34 19 C 34 17.343 32.657 16 31 16 z M 11 18 C 14.859 18 18 21.141 18 25 C 18 28.859 14.859 32 11 32 C 7.141 32 4 28.859 4 25 C 4 21.141 7.141 18 11 18 z M 24 18 C 24.551 18 25 18.449 25 19 L 25 31 C 25 31.551 24.551 32 24 32 C 23.449 32 23 31.551 23 31 L 23 19 C 23 18.449 23.449 18 24 18 z M 31 18 C 31.551 18 32 18.449 32 19 L 32 31 C 32 31.551 31.551 32 31 32 C 30.449 32 30 31.551 30 31 L 30 19 C 30 18.449 30.449 18 31 18 z M 45 18 C 43.343 18 42 19.343 42 21 L 42 29 C 42 30.657 43.343 32 45 32 C 46.657 32 48 30.657 48 29 L 48 21 C 48 19.343 46.657 18 45 18 z M 11 20 C 8.243 20 6 22.243 6 25 C 6 27.757 8.243 30 11 30 C 13.757 30 16 27.757 16 25 C 16 22.243 13.757 20 11 20 z M 45 20 C 45.551 20 46 20.449 46 21 L 46 29 C 46 29.551 45.551 30 45 30 C 44.449 30 44 29.551 44 29 L 44 21 C 44 20.449 44.449 20 45 20 z M 38 21 C 36.343 21 35 22.343 35 24 L 35 26 C 35 27.657 36.343 29 38 29 C 39.657 29 41 27.657 41 26 L 41 24 C 41 22.343 39.657 21 38 21 z M 11 22 C 12.654 22 14 23.346 14 25 C 14 26.654 12.654 28 11 28 C 9.346 28 8 26.654 8 25 C 8 23.346 9.346 22 11 22 z M 38 23 C 38.551 23 39 23.449 39 24 L 39 26 C 39 26.551 38.551 27 38 27 C 37.449 27 37 26.551 37 26 L 37 24 C 37 23.449 37.449 23 38 23 z"/></svg>